<svg xmlns="http://www.w3.org/2000/svg" viewBox="0 0 64 64">
  <rect width="64" height="64" rx="10" fill="#050403"/>
  <path d="M12 21l5-10 11 11 4-15 4 15 11-11 5 10" fill="none" stroke="#D6B15F" stroke-width="4" stroke-linecap="round" stroke-linejoin="round"/>
  <path d="M15 25h34" fill="none" stroke="#D6B15F" stroke-width="4" stroke-linecap="round"/>
  <circle cx="20" cy="39" r="4" fill="#FFF4E5"/>
  <circle cx="28" cy="34" r="4" fill="#FFF4E5"/>
  <circle cx="36" cy="34" r="4" fill="#FFF4E5"/>
  <circle cx="44" cy="39" r="4" fill="#FFF4E5"/>
  <path d="M22 49c0-6 5-10 10-10s10 4 10 10c0 4-3 6-6 4-2-1-3-2-4-2s-2 1-4 2c-3 2-6 0-6-4z" fill="#FFF4E5"/>
</svg>
